<?xml version="1.0" standalone="no"?>
<!DOCTYPE svg PUBLIC "-//W3C//DTD SVG 20010904//EN"
 "http://www.w3.org/TR/2001/REC-SVG-20010904/DTD/svg10.dtd">
<svg version="1.0" xmlns="http://www.w3.org/2000/svg"
 width="2048.000000pt" height="2048.000000pt" viewBox="0 0 2048.000000 2048.000000"
 preserveAspectRatio="xMidYMid meet">
<metadata>
Created by potrace 1.11, written by Peter Selinger 2001-2013
</metadata>
<g transform="translate(0.000000,2048.000000) scale(0.100000,-0.100000)"
fill="#000000" stroke="none">
<path d="M10853 20185 c-88 -19 -178 -62 -248 -118 -73 -59 -115 -109 -168
-207 -29 -52 -83 -119 -179 -223 -325 -349 -795 -937 -1437 -1797 -162 -217
-353 -469 -425 -560 -487 -618 -594 -760 -919 -1215 -381 -534 -881 -1202
-1538 -2055 -129 -168 -283 -368 -341 -445 -58 -77 -141 -186 -184 -242 -227
-292 -580 -757 -810 -1063 -279 -371 -467 -616 -618 -803 -52 -64 -111 -144
-131 -177 -83 -137 -125 -320 -105 -461 21 -149 53 -217 224 -477 67 -103 160
-250 206 -327 179 -300 351 -572 937 -1485 142 -223 306 -479 363 -570 337
-538 483 -770 614 -974 142 -220 257 -400 746 -1166 124 -195 292 -456 372
-580 390 -604 703 -1095 885 -1385 201 -321 402 -637 547 -859 42 -65 136
-211 208 -325 72 -113 203 -316 291 -451 88 -134 223 -346 300 -470 159 -254
380 -586 468 -702 128 -168 237 -264 365 -324 94 -44 150 -56 259 -55 159 0
284 56 395 177 63 69 103 146 150 289 21 66 71 173 148 315 121 224 251 488
420 851 55 118 151 318 212 444 62 127 157 327 212 445 124 266 247 513 411
825 69 132 191 380 270 550 125 269 764 1561 786 1590 4 5 60 111 123 235 64
124 178 347 254 495 76 149 225 439 331 645 217 419 584 1156 721 1445 49 105
120 253 157 330 37 77 129 273 205 435 266 570 313 666 377 768 124 197 160
314 150 486 -10 176 -42 269 -274 801 -160 364 -233 522 -431 925 -326 666
-439 892 -592 1185 -279 532 -382 734 -656 1280 -147 292 -314 620 -372 730
-58 110 -150 292 -205 405 -54 113 -183 376 -287 585 -104 209 -267 549 -363
755 -415 893 -502 1071 -642 1325 -69 123 -93 179 -134 311 -124 393 -268 617
-495 771 -166 112 -375 157 -553 118z m130 -1863 c9 -10 28 -44 43 -77 14 -33
204 -417 421 -854 217 -436 443 -897 503 -1025 59 -127 161 -339 225 -471 113
-232 177 -370 303 -655 33 -74 121 -265 197 -425 208 -439 376 -802 605 -1310
274 -607 353 -777 635 -1365 241 -503 275 -573 511 -1016 85 -159 134 -262
134 -281 0 -18 -112 -256 -304 -644 -284 -574 -493 -1004 -602 -1235 -121
-259 -330 -714 -479 -1044 -54 -118 -183 -404 -287 -635 -105 -231 -229 -505
-275 -610 -240 -537 -553 -1204 -770 -1645 -97 -195 -242 -503 -323 -685 -81
-181 -233 -503 -338 -715 -104 -212 -203 -414 -219 -450 -86 -189 -408 -830
-419 -834 -16 -6 -95 109 -329 479 -87 138 -244 385 -350 550 -105 165 -268
419 -360 565 -93 146 -266 414 -385 595 -255 389 -270 412 -742 1150 -201 314
-511 797 -690 1075 -178 278 -435 678 -571 890 -135 212 -329 511 -431 665
-101 154 -413 636 -693 1070 -279 435 -603 933 -720 1108 -117 174 -213 325
-213 335 0 10 8 29 17 42 27 40 387 499 633 810 125 157 535 681 911 1165
1034 1329 1485 1897 1909 2405 327 392 449 545 684 855 324 429 428 562 747
965 320 402 632 805 851 1098 72 94 136 172 142 172 7 0 20 -8 29 -18z"/>
<path d="M10654 16664 c-106 -55 -186 -157 -314 -394 -170 -314 -209 -386
-325 -590 -67 -118 -194 -350 -282 -515 -187 -349 -318 -580 -618 -1090 -447
-757 -771 -1335 -1055 -1880 -100 -192 -239 -449 -307 -569 -162 -284 -218
-399 -239 -493 -31 -141 -9 -276 116 -718 37 -132 87 -312 110 -400 61 -234
132 -463 206 -668 73 -201 307 -785 446 -1112 50 -115 159 -379 243 -585 84
-206 198 -484 254 -617 55 -133 159 -387 230 -565 138 -346 226 -552 316 -743
81 -171 257 -571 370 -840 118 -282 163 -369 236 -460 70 -88 177 -189 229
-215 87 -44 181 -17 224 65 18 35 21 57 21 180 -1 178 -15 236 -139 552 -95
241 -112 289 -301 811 -58 162 -144 391 -189 510 -46 119 -126 332 -176 472
-51 140 -166 438 -256 662 -364 908 -578 1512 -839 2373 -68 223 -95 308 -249
785 -47 146 -86 275 -86 288 0 25 584 1208 732 1482 52 96 167 315 255 485
153 295 264 503 653 1215 269 495 498 963 690 1410 255 596 335 926 265 1098
-38 93 -122 118 -221 66z"/>
<path d="M11470 12939 c-170 -18 -302 -136 -373 -335 -73 -203 -59 -499 41
-892 25 -98 27 -123 26 -287 0 -168 -3 -192 -38 -360 -20 -99 -75 -324 -121
-500 -127 -486 -173 -727 -190 -1010 -9 -152 21 -682 44 -785 62 -277 200
-465 417 -573 132 -66 241 -90 404 -89 258 0 463 81 688 268 199 166 340 344
452 569 164 330 226 573 248 975 11 189 2 314 -34 485 -22 108 -28 168 -34
360 -5 177 -12 254 -29 335 -55 260 -207 632 -345 845 -120 183 -441 602 -535
696 -234 233 -413 319 -621 298z"/>
<path d="M11263 7305 c-29 -8 -75 -26 -102 -39 -64 -33 -239 -174 -297 -240
-88 -100 -193 -359 -229 -564 -20 -120 -21 -310 0 -398 65 -281 319 -456 581
-401 144 31 256 116 344 263 27 44 70 108 96 140 122 157 164 332 164 689 0
164 -11 245 -45 320 -28 63 -109 153 -169 189 -93 54 -231 71 -343 41z"/>
<path d="M14839 19877 c-123 -42 -253 -146 -338 -270 -76 -112 -205 -405 -255
-582 -88 -313 -64 -583 59 -652 65 -37 135 -32 231 17 179 90 459 344 606 550
78 110 160 268 183 355 25 95 30 239 12 312 -35 136 -113 231 -220 272 -79 29
-189 28 -278 -2z"/>
<path d="M4128 19236 c-51 -14 -63 -22 -121 -75 -79 -75 -99 -211 -51 -362 33
-104 215 -463 299 -589 150 -226 419 -452 648 -546 202 -82 369 -65 474 48
145 158 95 458 -124 754 -155 209 -264 319 -494 496 -328 252 -475 316 -631
274z"/>
<path d="M16804 17872 c-141 -50 -417 -205 -537 -302 -181 -145 -377 -391
-484 -605 -148 -295 -164 -587 -40 -722 101 -110 239 -121 424 -32 220 105
623 459 794 699 71 98 249 451 281 554 58 187 9 333 -136 408 -31 16 -64 23
-131 25 -79 3 -100 0 -171 -25z"/>
<path d="M2045 16961 c-46 -21 -79 -54 -94 -94 -16 -40 -13 -127 4 -177 37
-106 184 -284 376 -455 68 -61 175 -162 239 -225 219 -218 404 -315 630 -327
176 -9 281 27 375 129 144 155 122 383 -53 570 -119 127 -281 209 -543 274
-193 48 -262 75 -537 213 -227 114 -309 133 -397 92z"/>
<path d="M17391 15765 c-452 -104 -900 -646 -767 -930 61 -132 187 -177 434
-155 168 14 387 46 491 71 259 60 474 235 551 446 31 87 26 213 -13 296 -53
115 -193 219 -352 262 -85 23 -264 28 -344 10z"/>
<path d="M2105 14713 c-11 -2 -94 -22 -185 -43 -91 -21 -244 -55 -340 -74 -96
-19 -195 -42 -220 -51 -189 -67 -229 -251 -84 -385 96 -88 262 -143 545 -180
339 -44 460 -37 607 36 147 72 234 194 240 335 4 67 0 85 -23 138 -47 105
-153 184 -287 216 -58 14 -206 19 -253 8z"/>
<path d="M16781 9285 c-112 -32 -194 -94 -238 -184 -13 -27 -18 -59 -18 -126
0 -81 3 -95 29 -143 17 -29 59 -81 95 -114 115 -108 252 -159 831 -310 217
-57 243 -62 346 -62 104 -1 114 1 169 29 84 43 118 94 123 183 10 182 -122
319 -483 502 -157 80 -360 164 -499 207 -104 32 -274 41 -355 18z"/>
<path d="M3280 6784 c-149 -32 -232 -66 -470 -192 -74 -39 -218 -103 -320
-142 -325 -125 -405 -173 -454 -272 -86 -172 35 -335 283 -384 190 -37 790 19
1031 97 232 76 456 242 532 396 30 61 33 76 33 158 0 78 -4 97 -27 140 -52
100 -161 177 -286 204 -71 15 -242 13 -322 -5z"/>
<path d="M16260 6644 c-229 -61 -367 -257 -330 -467 34 -187 185 -358 415
-468 172 -82 530 -197 767 -245 170 -35 418 -44 503 -19 121 35 197 92 241
180 56 116 22 267 -83 373 -90 90 -327 237 -682 422 -276 144 -408 201 -523
224 -95 20 -235 20 -308 0z"/>
<path d="M4268 4410 c-248 -52 -397 -131 -746 -393 -221 -166 -359 -315 -398
-429 -62 -183 46 -333 227 -315 73 8 137 33 379 144 107 50 269 117 360 148
91 32 198 73 239 92 176 79 330 212 392 338 55 113 52 259 -9 330 -83 98 -240
128 -444 85z"/>
<path d="M14450 3531 c-94 -29 -186 -116 -217 -204 -12 -36 -18 -78 -17 -137
2 -171 94 -355 272 -544 275 -294 411 -435 489 -509 249 -238 367 -308 519
-310 78 0 151 26 211 77 73 62 111 208 83 327 -46 201 -326 632 -644 993 -123
138 -312 264 -452 300 -64 16 -200 20 -244 7z"/>
<path d="M5250 2998 c-25 -12 -80 -57 -122 -100 -122 -125 -191 -240 -289
-485 -151 -378 -199 -566 -178 -690 22 -127 101 -198 219 -197 162 2 301 146
469 488 183 372 230 542 202 737 -19 129 -67 220 -133 255 -41 21 -116 17
-168 -8z"/>
</g>
</svg>
